<svg width="39" height="39" fill="none" xmlns="http://www.w3.org/2000/svg"><path d="m8.083 13.567-3.065-1.876c-.325-.2-.473-.43-.567-.666-.113-.28-.18-.746.168-1.283.349-.536.707-.625.95-.677.247-.059.711.115.964.29l.024.016 2.94 2.015c.352-.513.713-1.02 1.083-1.52L7.32 7.45c-.595-.443-1.458-.556-2.166-.35-.557.148-1.166.69-1.56 1.283-.427.642-.64 1.546-.433 2.17l-.498-.305c-.368.601-.725 1.209-1.07 1.823l5.54 3.115c.307-.546.623-1.085.95-1.619Z" fill="#260B3B"/><path fill-rule="evenodd" clip-rule="evenodd" d="M6.895 17.595c-.014.932-.361 1.735-1.041 2.41-.68.675-1.481 1.016-2.402 1.023-.926.002-1.72-.33-2.378-.993-.66-.665-.982-1.457-.968-2.378.009-.926.353-1.727 1.033-2.402.68-.675 1.486-1.016 2.418-1.023.926-.013 1.719.313 2.378.978.66.664.98 1.459.96 2.385ZM2.38 16.507c-.308.305-.46.673-.457 1.101.01.424.17.793.48 1.106.312.314.681.474 1.11.48.424.013.79-.134 1.098-.44.308-.306.46-.673.456-1.102a1.548 1.548 0 0 0-.472-1.113 1.546 1.546 0 0 0-1.11-.48 1.478 1.478 0 0 0-1.105.448Z" fill="#260B3B"/><path d="m2.398 27.215.102.05.017.008.012.005h.001s.058.027.16.067c.102.041.246.098.424.157a2.465 2.465 0 0 0-.306.88c-.027.153-.028.32-.009.497.017.177.06.361.117.549a3.578 3.578 0 0 0 .37.823 2.793 2.793 0 0 0 .6.736c.083.073.167.143.257.205.089.064.18.123.272.177a3.561 3.561 0 0 0 .56.26c.185.064.366.107.53.128l.044.006.127.013c.11.01.266.02.45.028a2.494 2.494 0 0 0-.044.929c.02.152.065.313.132.478.07.162.159.33.267.492.217.323.503.634.814.878a3.008 3.008 0 0 0 .86.465c.104.035.207.069.312.093.417.101.828.119 1.158.064l3.14-5.096-1.954 3.173a1.331 1.331 0 0 1-1.255.667 1.337 1.337 0 0 1-.363-.085 1.887 1.887 0 0 1-.715-.517 1.357 1.357 0 0 1-.18-.28 1.362 1.362 0 0 1-.117-.465.627.627 0 0 1 .021-.226 1.52 1.52 0 0 1 .096-.26c.083-.177.196-.35.3-.469l2.458-2.802c-.382-.336-.75-.696-1.09-1.076l-.007-.007-2.837 2.546c-.269.22-.517.29-.76.31-.157.016-.352 0-.565-.082a1.3 1.3 0 0 1-.323-.185 1.69 1.69 0 0 1-.162-.14 2.197 2.197 0 0 1-.286-.374 1.819 1.819 0 0 1-.091-.183 1.237 1.237 0 0 1-.076-.798c.043-.262.4-.63.67-.799l3.15-1.99a3.003 3.003 0 0 1-.072-.118l-.027-.045-.1-.163-.094-.165-.014-.024a3.584 3.584 0 0 1-.079-.142l-.038-.07a7.502 7.502 0 0 1-.173-.33l-.053-.106-.082-.172-.004-.009-3.37 1.592a1.33 1.33 0 0 1-1.416-.125c-.18-.141-.351-.355-.468-.67l-.004-.01a1.556 1.556 0 0 1-.101-.75 1.4 1.4 0 0 1 .155-.45c.057-.118.2-.241.364-.344a2.07 2.07 0 0 1 .507-.228l.703-.197h.004l2.883-.807-.004-.011a12.402 12.402 0 0 1-.318-1.481l-.002-.009-4.16.637c-.234.035-.462.11-.677.22a2.503 2.503 0 0 0-1.133 1.167c-.136.276-.2.639-.198 1.03a3.952 3.952 0 0 0 .2 1.18l.004.007.004.012.026.071.005.013.02.056.017.04a3.118 3.118 0 0 0 .614.931c.127.133.258.254.394.358.136.104.273.192.406.262Z" fill="#260B3B"/><path fill-rule="evenodd" clip-rule="evenodd" d="M33.011 7.079c-.932.007-1.738.348-2.418 1.023-.68.675-1.024 1.476-1.033 2.402-.014.92.309 1.713.968 2.378.659.664 1.452.995 2.378.993.921-.007 1.722-.348 2.402-1.023.68-.675 1.028-1.479 1.041-2.41.02-.927-.3-1.722-.96-2.386-.658-.664-1.452-.99-2.378-.977Zm1.512 3.42c.003.428-.149.796-.457 1.102a1.442 1.442 0 0 1-1.098.44 1.546 1.546 0 0 1-1.11-.48 1.568 1.568 0 0 1-.48-1.106 1.477 1.477 0 0 1 .457-1.102 1.48 1.48 0 0 1 1.105-.448c.43.007.8.167 1.11.48.312.314.469.685.473 1.114Z" fill="#260B3B"/><path d="M26.072 4.27c-.566.772-.781 1.603-.645 2.492.143.894.604 1.627 1.383 2.198a3.209 3.209 0 0 0 2.25.633l.395-1.716c-.603.115-1.126.01-1.567-.313a1.536 1.536 0 0 1-.635-.995c-.067-.402.037-.79.311-1.164.28-.38.628-.603 1.046-.667.423-.071.813.025 1.17.286.428.314.679.776.751 1.386l1.518-.892a3.21 3.21 0 0 0-1.282-1.956c-.778-.571-1.612-.788-2.502-.651-.895.132-1.626.586-2.193 1.358ZM20.71 3.006l-.4 3.571a50.59 50.59 0 0 0-1.87-.174l.474-6.338a56.71 56.71 0 0 1 2.104.196l-.065.58C21.43.39 22.339.2 23.103.316c.703.104 1.452.426 1.821.868.488.554.751 1.384.602 2.11-.27 1.325-.538 2.651-.807 3.977a50.043 50.043 0 0 0-1.834-.337l.579-3.52.004-.026c.05-.302.012-.796-.147-.996-.15-.197-.382-.484-1.015-.573-.634-.087-1.028.171-1.234.392-.174.186-.32.417-.362.796ZM15.996 6.303c-.21.598-.84 1.134-1.477 1.376-.588.22-1.306.305-1.818.122-.657-.222-1.324-.756-1.623-1.435l-.37-.849c-.42-.956-.838-1.913-1.257-2.87a56.483 56.483 0 0 1 1.947-.809l1.318 3.343c.113.286.396.69.625.786.223.1.549.235 1.111.028.563-.205.784-.598.869-.885.07-.24.103-.51-.019-.872L14.158.83c.67-.225 1.345-.437 2.023-.638l1.37 4.641.428 1.455c-.602.178-1.201.367-1.797.567l-.186-.553ZM16.118 31.55l-.963 3.6-.016.057.979-3.657ZM15.139 35.207l-.569 2.126c-.15.073-.324.134-.516.182a3.264 3.264 0 0 1-1.586-.009 3.055 3.055 0 0 1-.582-.224 4.158 4.158 0 0 1-.269-.143 4.716 4.716 0 0 1-.376-.252 4.063 4.063 0 0 1-.329-.285 2.511 2.511 0 0 1-.335-.412 2.423 2.423 0 0 1-.336-1.117c-.181.047-.333.078-.441.1l-.171.032 3.14-5.097.008.005c.433.264.88.506 1.343.717l-1.553 3.388c-.134.289-.233.791-.127 1.035.05.119.115.263.246.411.065.075.149.146.254.216a1.658 1.658 0 0 0 .392.193 1.605 1.605 0 0 0 .636.1 1.277 1.277 0 0 0 .474-.124 1.3 1.3 0 0 0 .222-.14c.197-.153.37-.354.475-.702ZM35.63 16.182l-3.661.7a13.215 13.215 0 0 0-.383-1.502l6.3-2.019c.237.747.432 1.507.58 2.277l-.62.119c.13.104.263.235.388.387a3.56 3.56 0 0 1 .346.515c.05.094.1.193.143.293a3.508 3.508 0 0 1 .16.468 2.916 2.916 0 0 1 .088.785c0 .051 0 .102-.002.153a5.144 5.144 0 0 1-.046.454c-.016.1-.037.197-.06.293-.092.38-.245.72-.445.955a2.53 2.53 0 0 1-.715.6 10.049 10.049 0 0 1 .386.492c.096.137.187.3.264.482a3.598 3.598 0 0 1 .185.592c.022.105.04.213.055.322a3.633 3.633 0 0 1 .02.495 3.219 3.219 0 0 1-.062.486 4.65 4.65 0 0 1-.175.58 4.645 4.645 0 0 1-.12.28c-.044.091-.09.18-.14.264-.197.34-.44.622-.7.791a2.279 2.279 0 0 1-.409.225 2.552 2.552 0 0 1-.447.147c.141.325.223.56.229.58l-5.54-2.26.003-.008c.192-.474.356-.96.492-1.455l3.596.979c.308.085.82.1 1.04-.046.055-.035.117-.074.18-.123a1.202 1.202 0 0 0 .36-.476 1.83 1.83 0 0 0 .127-.42c.03-.165.039-.316.025-.453a1.333 1.333 0 0 0-.082-.365 1.333 1.333 0 0 0-1.15-.839l-3.708-.366.001-.01c.05-.51.068-1.025.058-1.538l3.727-.082c.319-.007.813-.137.985-.34.042-.049.09-.103.136-.169a1.238 1.238 0 0 0 .211-.558 1.962 1.962 0 0 0-.037-.675 1.506 1.506 0 0 0-.247-.532 1.331 1.331 0 0 0-1.337-.479Z" fill="#260B3B"/><path d="M35.298 26.09a1.333 1.333 0 0 0-.686-.58l2.086.851a2.714 2.714 0 0 1 .134.837c.002.104 0 .21-.009.317a3.263 3.263 0 0 1-.113.643 2.848 2.848 0 0 1-.402.862 3.725 3.725 0 0 1-.798.88 2.796 2.796 0 0 1-.45.28 2.352 2.352 0 0 1-.68.182c-.157.017-.315.02-.47.01.023.172.033.317.042.425l.001.024c.008.11.01.174.01.174l-4.661-3.755.006-.008c.318-.397.614-.811.882-1.243l3.165 1.969c.27.169.756.33 1.01.256a1.335 1.335 0 0 0 .563-.29 1.767 1.767 0 0 0 .364-.492 1.593 1.593 0 0 0 .152-.425c.027-.133.035-.257.026-.371a1.232 1.232 0 0 0-.172-.545ZM32.203 29.582c.152.123.26.248.337.374a1.334 1.334 0 0 1 .165.951c-.025.11-.065.23-.13.35a1.734 1.734 0 0 1-.266.363c-.117.12-.228.211-.334.28a1.38 1.38 0 0 1-.435.18 1.307 1.307 0 0 1-.125.017c-.08.008-.152.007-.216.005-.263.003-.685-.293-.896-.531l-2.477-2.785c-.382.338-.782.655-1.199.945l-.008.005 2.171 3.133c.187.296.226.553.216.798a1.23 1.23 0 0 1-.153.55c-.054.102-.128.2-.224.298a1.673 1.673 0 0 1-.16.143 1.966 1.966 0 0 1-.6.304c-.122.036-.23.052-.33.054a1.349 1.349 0 0 1-.473-.08c-.254-.075-.572-.476-.706-.765l-1.577-3.377c-.46.215-.935.4-1.417.56l-.01.003 1.855 5.692s.033-.055.087-.151a7.92 7.92 0 0 0 .208-.401 2.49 2.49 0 0 0 1.07.466c.081.011.167.017.256.02a2.775 2.775 0 0 0 .56-.047 3.728 3.728 0 0 0 .863-.263 2.81 2.81 0 0 0 .807-.503 3.115 3.115 0 0 0 .446-.477 3.529 3.529 0 0 0 .33-.523 2.71 2.71 0 0 0 .194-.512l-.002-.003a9.61 9.61 0 0 0 .123-.61 2.505 2.505 0 0 0 .918.157c.153 0 .32-.025.491-.072a2.96 2.96 0 0 0 .522-.205c.173-.088.348-.191.51-.31a5.03 5.03 0 0 0 .24-.186c.077-.065.151-.133.222-.202a2.822 2.822 0 0 0 .565-.793c.048-.098.094-.196.13-.297.153-.4.222-.806.209-1.14l-1.758-1.415ZM23.354 31.357l1.155 3.543.015.05-1.17-3.593ZM24.51 35.804c.083-.237.119-.502.014-.853l.684 2.097a2.882 2.882 0 0 1-.551.643 3.376 3.376 0 0 1-1.116.648 2.925 2.925 0 0 1-.61.13 3.918 3.918 0 0 1-.755.02 4.078 4.078 0 0 1-.43-.06 2.764 2.764 0 0 1-.505-.162 2.494 2.494 0 0 1-.89-.752 7.873 7.873 0 0 1-.314.325c-.078.077-.125.12-.125.12l-.06-2.222v.004l-.1-3.766h.01c.51-.016 1.018-.057 1.522-.133l.547 3.686c.046.315.236.79.458.937a1.251 1.251 0 0 0 .76.254 1.736 1.736 0 0 0 .434-.053 1.606 1.606 0 0 0 .587-.263 1.357 1.357 0 0 0 .33-.362 1.26 1.26 0 0 0 .11-.238ZM19.597 36.57c.147-.206.258-.453.255-.828l.06 2.22c-.124.114-.273.22-.443.321a3.302 3.302 0 0 1-1.52.443 2.958 2.958 0 0 1-.622-.048 3.889 3.889 0 0 1-.866-.25 2.865 2.865 0 0 1-.493-.266 1.696 1.696 0 0 1-.373-.328 2.492 2.492 0 0 1-.472-.802 8.002 8.002 0 0 1-.548.302l1.546-5.784.01.003c.492.13.99.232 1.495.304l-.52 3.69c-.046.315.002.825.174 1.027.08.101.184.22.352.325.084.053.184.097.305.135a1.85 1.85 0 0 0 .43.072 1.609 1.609 0 0 0 .638-.085 1.37 1.37 0 0 0 .419-.253c.07-.066.128-.134.173-.197Z" fill="#260B3B"/></svg>